<?xml version="1.0" standalone="no"?>
<!DOCTYPE svg PUBLIC "-//W3C//DTD SVG 20010904//EN"
 "http://www.w3.org/TR/2001/REC-SVG-20010904/DTD/svg10.dtd">
<svg version="1.0" xmlns="http://www.w3.org/2000/svg"
 width="453.000000pt" height="360.000000pt" viewBox="0 0 453.000000 360.000000"
 preserveAspectRatio="xMidYMid meet">
<metadata>
Created by potrace 1.16, written by Peter Selinger 2001-2019
</metadata>
<g transform="translate(0.000000,360.000000) scale(0.100000,-0.100000)"
fill="#000000" stroke="none">
<path d="M2541 2651 c-54 -6 -56 -7 -97 -68 -113 -165 -116 -328 -11 -504 29
-49 37 -55 82 -65 99 -24 99 -24 59 61 -77 167 -83 282 -22 406 21 41 58 98
83 127 l47 52 -44 -2 c-24 -1 -67 -4 -97 -7z m15 -66 c-50 -65 -88 -162 -94
-234 -5 -73 21 -188 59 -262 l20 -40 -28 3 c-54 6 -116 159 -117 288 0 65 4
84 32 141 48 96 86 139 124 139 l30 0 -26 -35z"/>
<path d="M2729 2602 c-123 -141 -160 -275 -117 -422 10 -34 76 -191 83 -199 7
-6 130 -30 134 -25 2 2 -10 39 -28 83 -42 109 -54 171 -49 260 6 97 46 179
135 270 34 36 61 66 60 67 -1 1 -41 6 -88 10 l-85 6 -45 -50z m114 12 c3 -4
-14 -33 -39 -65 -25 -32 -57 -85 -72 -116 -24 -52 -27 -69 -26 -163 1 -90 5
-116 31 -188 30 -81 30 -83 9 -80 -28 4 -80 109 -102 206 -29 131 4 244 105
355 48 52 77 68 94 51z"/>
<path d="M2320 2630 c-127 -23 -122 -21 -157 -89 -66 -132 -65 -237 4 -383 33
-71 40 -79 72 -87 95 -23 120 -28 125 -23 3 2 -5 23 -19 46 -51 88 -70 156
-70 251 0 81 3 97 32 158 18 38 42 81 53 97 21 30 25 41 13 39 -5 -1 -28 -5
-53 -9z m-30 -45 c0 -3 -11 -27 -24 -53 -56 -112 -58 -225 -7 -357 l29 -76
-26 3 c-34 4 -75 76 -99 173 -14 56 -14 76 -4 133 15 84 57 164 91 173 34 9
40 10 40 4z"/>
<path d="M2979 2553 c-83 -80 -137 -178 -146 -264 -7 -72 18 -197 57 -285 l30
-66 48 7 c68 10 248 71 312 107 30 17 78 48 107 70 l52 39 -16 52 c-39 132
-163 276 -331 381 l-43 27 -70 -68z m95 11 c25 -9 20 -23 -28 -74 -112 -119
-141 -290 -80 -463 16 -45 16 -44 -10 -49 -16 -2 -25 12 -49 77 -26 69 -31 94
-31 180 -1 122 13 159 103 263 63 73 68 77 95 66z m12 -231 c15 -21 28 -39 30
-41 1 -2 23 7 49 20 46 22 47 22 61 4 16 -23 7 -38 -36 -56 -35 -14 -37 -26
-10 -60 25 -32 25 -47 1 -60 -17 -9 -24 -4 -48 27 -15 21 -28 39 -29 41 -1 2
-21 -6 -44 -18 -33 -17 -45 -19 -56 -9 -22 18 -17 33 21 53 19 11 35 23 35 28
0 5 -12 25 -26 44 -26 34 -26 35 -8 49 27 20 28 19 60 -22z"/>
<path d="M1983 2537 c-92 -35 -99 -44 -110 -149 -6 -61 6 -123 39 -199 l20
-47 85 -21 c47 -12 87 -20 88 -19 2 2 -13 37 -33 78 -48 98 -56 202 -22 295
32 91 33 95 24 95 -5 -1 -46 -15 -91 -33z m12 -59 c-4 -13 -9 -59 -12 -103 -4
-68 -1 -90 20 -147 l25 -68 -22 0 c-35 0 -55 21 -76 82 -34 98 -22 230 23 248
39 15 50 12 42 -12z"/>
<path d="M1708 2394 c-70 -49 -78 -58 -78 -87 0 -60 19 -79 100 -104 99 -30
104 -30 86 5 -22 43 -34 122 -29 185 3 31 4 57 2 57 -2 0 -39 -25 -81 -56z"/>
<path d="M1165 2363 c-27 -8 -54 -19 -59 -24 -25 -24 111 -117 178 -121 20 -2
36 -4 36 -6 0 -2 -14 -15 -30 -29 -39 -33 -69 -90 -77 -149 l-6 -47 37 7 c101
19 207 90 267 178 57 83 56 104 -4 145 -27 18 -72 40 -100 48 -64 19 -177 18
-242 -2z"/>
<path d="M870 1685 l0 -35 50 0 49 0 3 -112 3 -113 35 0 35 0 3 113 3 112 49
0 50 0 0 35 0 35 -140 0 -140 0 0 -35z"/>
<path d="M1180 1708 c0 -19 81 -261 93 -275 5 -7 22 -13 38 -13 32 0 44 18 73
108 10 28 22 52 27 52 4 0 18 -31 30 -69 23 -79 36 -94 76 -89 26 3 31 12 80
138 28 74 52 141 52 148 1 7 -13 12 -38 12 -38 0 -39 -1 -61 -62 -41 -113 -40
-113 -69 -23 l-26 80 -41 3 -41 3 -28 -80 c-16 -45 -31 -78 -34 -76 -3 3 -17
38 -31 78 -25 71 -26 72 -62 75 -26 2 -38 -1 -38 -10z"/>
<path d="M1711 1698 c-5 -13 -32 -77 -60 -142 -27 -66 -48 -123 -45 -128 12
-19 64 -8 80 17 15 22 23 25 81 25 57 0 66 -3 70 -20 6 -21 38 -34 69 -28 10
1 18 7 18 11 -1 5 -27 71 -59 148 l-59 139 -43 0 c-36 0 -45 -4 -52 -22z"/>
<path d="M1967 1713 c-10 -9 -8 -266 1 -281 6 -9 36 -12 113 -10 l104 3 3 37
3 37 -73 3 -73 3 -3 108 -3 107 -33 0 c-18 0 -36 -3 -39 -7z"/>
<path d="M2282 1578 c-33 -78 -58 -146 -56 -150 12 -19 64 -8 80 17 15 22 23
25 79 25 56 0 64 -3 79 -25 16 -25 68 -36 80 -17 2 4 -23 72 -56 150 l-61 142
-42 0 -42 0 -61 -142z"/>
<path d="M2692 1573 l3 -148 35 0 c35 0 35 0 38 48 l3 47 60 0 59 0 0 35 0 35
-60 0 c-60 0 -60 0 -60 30 l0 29 73 3 72 3 0 30 0 30 -113 3 -113 3 3 -148z"/>
<path d="M2964 1707 c-2 -7 -3 -74 -2 -148 l3 -134 35 0 35 0 3 148 3 147 -36
0 c-20 0 -38 -6 -41 -13z"/>
<path d="M3119 1691 c-32 -32 -38 -75 -16 -105 7 -9 42 -27 77 -40 40 -13 65
-28 65 -36 0 -24 -45 -24 -70 0 -31 29 -92 25 -87 -5 14 -78 150 -110 219 -51
59 51 22 124 -79 152 -62 18 -72 37 -23 42 19 2 33 -2 41 -13 14 -19 75 -17
82 3 2 7 -12 28 -31 47 -32 32 -40 35 -92 35 -49 0 -60 -4 -86 -29z"/>
<path d="M3380 1571 l0 -151 34 0 c39 0 46 11 46 76 l0 44 55 0 54 0 3 -57 3
-58 35 0 35 0 3 148 3 147 -41 0 -40 0 0 -55 0 -55 -54 0 -55 0 -3 53 -3 52
-37 3 -38 3 0 -150z"/>
</g>
</svg>
