<?xml version="1.0" standalone="no"?>
<!DOCTYPE svg PUBLIC "-//W3C//DTD SVG 20010904//EN"
 "http://www.w3.org/TR/2001/REC-SVG-20010904/DTD/svg10.dtd">
<svg version="1.0" xmlns="http://www.w3.org/2000/svg"
 width="396.000000pt" height="313.000000pt" viewBox="0 0 396.000000 313.000000"
 preserveAspectRatio="xMidYMid meet">
<metadata>
Created by potrace 1.16, written by Peter Selinger 2001-2019
</metadata>
<g transform="translate(0.000000,313.000000) scale(0.100000,-0.100000)"
fill="#000000" stroke="none">
<path d="M0 1565 l0 -1565 1980 0 1980 0 0 1565 0 1565 -1980 0 -1980 0 0
-1565z m2313 682 c-82 -89 -121 -192 -109 -290 6 -42 41 -142 82 -234 5 -11
-9 -9 -103 12 -15 4 -32 24 -49 57 -90 178 -84 305 20 447 l38 51 80 0 81 0
-40 -43z m244 27 l31 -5 -53 -50 c-29 -27 -68 -78 -86 -112 -32 -58 -34 -68
-34 -157 1 -86 4 -104 37 -183 l36 -88 -47 7 c-68 9 -84 24 -121 111 -41 96
-52 214 -27 287 18 53 60 117 112 167 38 39 43 40 152 23z m-507 -71 c-73
-124 -74 -226 -6 -370 21 -44 30 -73 23 -73 -7 1 -37 7 -67 14 -44 10 -60 19
-78 46 -31 46 -62 152 -62 211 0 54 30 150 58 189 19 25 81 47 139 49 l32 1
-39 -67z m819 -98 c76 -79 123 -155 135 -220 6 -28 2 -33 -56 -72 -88 -59
-179 -99 -289 -128 -111 -28 -104 -33 -145 93 -59 177 -34 291 92 419 l63 64
61 -38 c34 -21 96 -74 139 -118z m-1062 53 c-14 -36 -21 -77 -21 -128 0 -64 4
-85 32 -144 18 -38 30 -71 28 -74 -3 -2 -37 4 -75 13 -69 18 -70 19 -92 69
-27 60 -36 164 -20 223 10 37 16 43 64 61 109 43 109 43 84 -20z m-233 -105
c-5 -44 -1 -73 14 -118 11 -33 19 -61 17 -63 -5 -5 -125 35 -144 47 -9 6 -15
27 -15 57 -1 47 -1 47 63 91 36 23 66 43 68 43 1 0 0 -26 -3 -57z m-294 -30
c25 -13 58 -33 74 -46 l29 -24 -29 -52 c-48 -89 -152 -165 -253 -186 l-34 -7
7 42 c9 60 42 118 79 140 l32 20 -38 0 c-45 0 -101 27 -148 71 l-34 33 55 18
c77 25 199 21 260 -9z m-262 -572 c4 -29 -12 -41 -55 -41 l-32 0 -3 -92 -3
-93 -30 0 -30 0 -3 93 -3 92 -29 0 c-15 0 -35 3 -44 6 -16 6 -22 45 -9 58 4 3
59 5 122 4 114 -3 116 -3 119 -27z m113 -41 c13 -38 26 -70 29 -70 4 0 15 27
25 60 21 70 33 83 72 78 25 -3 31 -11 51 -68 13 -35 24 -66 26 -68 2 -1 15 28
28 65 22 59 29 68 53 71 15 2 31 0 35 -5 8 -8 -71 -228 -88 -245 -5 -5 -22 -8
-37 -6 -25 3 -31 11 -49 65 -12 34 -24 64 -27 68 -4 3 -17 -24 -30 -60 -25
-69 -53 -90 -87 -68 -17 10 -95 231 -86 244 3 5 18 9 34 9 27 0 30 -5 51 -70z
m454 62 c13 -8 105 -221 105 -239 0 -22 -58 -16 -70 7 -9 16 -21 20 -68 20
-46 0 -60 -4 -70 -20 -12 -20 -56 -28 -66 -12 -4 7 78 208 98 241 8 12 55 15
71 3z m213 -89 l3 -92 62 -3 c62 -3 62 -3 62 -33 l0 -30 -95 0 -95 0 -3 114
c-1 63 0 121 3 129 3 8 16 12 32 10 l28 -3 3 -92z m388 -28 c28 -66 50 -123
47 -127 -9 -16 -53 -7 -65 12 -10 16 -24 20 -68 20 -43 0 -59 -4 -73 -20 -16
-19 -57 -27 -69 -14 -4 3 14 51 39 107 25 56 49 112 54 125 8 19 15 23 46 20
l37 -3 52 -120z m372 96 c5 -31 -12 -41 -75 -41 -46 0 -53 -3 -53 -19 0 -17 8
-20 53 -23 50 -3 52 -4 52 -33 0 -29 -2 -30 -52 -33 l-52 -3 -3 -37 c-3 -34
-6 -37 -33 -37 l-30 0 -3 128 -3 128 98 -3 c95 -3 98 -4 101 -27z m107 -101
l0 -125 -30 0 -30 0 -3 128 -3 128 33 -3 33 -3 0 -125z m223 97 c15 -15 22
-32 19 -41 -7 -18 -52 -22 -62 -6 -3 6 -20 10 -36 10 -46 0 -31 -22 25 -36 26
-7 56 -20 67 -30 27 -24 24 -66 -7 -95 -21 -19 -36 -24 -81 -24 -49 0 -58 3
-84 33 -17 19 -28 39 -26 45 6 19 44 20 69 3 27 -19 82 -22 76 -4 -3 7 -27 18
-54 25 -29 7 -58 23 -71 38 -19 21 -20 29 -11 56 21 61 125 76 176 26z m140
-19 l3 -48 50 0 49 0 0 51 0 50 33 -3 32 -3 0 -125 0 -125 -30 0 c-28 0 -30 3
-35 45 l-5 45 -47 3 -47 3 -3 -48 c-3 -46 -4 -48 -33 -48 l-30 0 -3 128 -3
128 33 -3 c32 -3 33 -5 36 -50z"/>
</g>
</svg>
