<?xml version="1.0" standalone="no"?>
<!DOCTYPE svg PUBLIC "-//W3C//DTD SVG 20010904//EN"
 "http://www.w3.org/TR/2001/REC-SVG-20010904/DTD/svg10.dtd">
<svg version="1.0" xmlns="http://www.w3.org/2000/svg"
 width="300.000000pt" height="120.000000pt" viewBox="0 0 300.000000 120.000000"
 preserveAspectRatio="xMidYMid meet">
<metadata>
Created by potrace 1.10, written by Peter Selinger 2001-2011
</metadata>
<g transform="translate(0.000000,120.000000) scale(0.100000,-0.100000)"
fill="#000000" stroke="none">
<path d="M578 873 c7 -3 16 -2 19 1 4 3 -2 6 -13 5 -11 0 -14 -3 -6 -6z"/>
<path d="M2338 873 c6 -2 18 -2 25 0 6 3 1 5 -13 5 -14 0 -19 -2 -12 -5z"/>
<path d="M2266 853 c3 -13 -12 -17 -51 -15 -11 0 -14 -2 -8 -4 10 -4 10 -11 2
-25 -5 -11 -15 -16 -21 -13 -7 4 -8 3 -4 -4 4 -7 3 -12 -3 -12 -21 0 -3 -35
20 -38 13 -2 29 -8 34 -14 7 -8 6 -9 -2 -4 -17 9 -36 -68 -28 -110 5 -29 11
-34 43 -40 35 -7 35 -8 12 -15 l-25 -7 28 -1 c15 -1 27 4 27 9 0 13 27 13 35
-1 4 -6 -2 -13 -14 -16 -12 -3 -21 -11 -21 -18 0 -16 -48 -37 -69 -30 -13 4
-16 13 -13 34 5 39 -29 65 -64 49 -13 -6 -25 -17 -25 -25 -3 -30 -4 -33 -14
-35 -5 -2 -11 5 -13 15 -2 9 2 17 8 17 7 0 6 6 -4 15 -8 8 -19 15 -25 15 -5 0
-9 12 -8 28 2 26 0 27 -49 30 -38 2 -62 -3 -88 -17 -36 -21 -49 -15 -21 9 8 7
13 16 10 20 -3 5 -2 10 3 12 4 1 18 22 30 45 l21 43 -21 11 c-29 16 -66 -3
-80 -41 -5 -17 -14 -30 -19 -30 -5 0 -9 -4 -9 -10 0 -5 -11 -26 -25 -46 -15
-22 -25 -30 -25 -20 0 9 -7 16 -16 16 -8 0 -13 4 -10 9 3 4 -5 7 -17 5 -80
-11 -100 -18 -128 -42 -18 -14 -30 -20 -27 -12 14 41 -54 72 -70 32 -4 -9 -22
-43 -41 -75 -18 -32 -30 -61 -27 -64 12 -12 56 41 66 78 12 45 38 75 52 61 6
-6 2 -25 -11 -50 -12 -23 -21 -44 -21 -47 0 -9 32 11 65 40 48 43 96 63 137
57 l38 -4 -19 -27 c-29 -41 -62 -111 -53 -111 18 0 94 94 144 180 43 72 58 90
77 90 23 0 23 0 5 -27 -40 -62 -65 -113 -59 -123 4 -6 1 -9 -5 -8 -13 3 -76
-100 -67 -109 4 -3 37 27 75 66 38 39 78 72 88 72 47 3 94 4 94 2 0 -1 -16
-28 -35 -60 -48 -80 -43 -98 10 -38 26 28 45 43 45 34 0 -22 -73 -99 -94 -99
-10 0 -20 9 -23 21 l-6 20 -22 -21 c-25 -24 -65 -20 -65 6 0 19 -10 18 -36 -7
-26 -25 -53 -19 -61 11 -5 20 -6 19 -29 -5 -28 -30 -52 -32 -62 -4 l-8 20 -18
-20 c-27 -30 -55 -26 -70 9 -9 23 -15 27 -24 18 -9 -9 -15 -9 -23 -1 -9 9 -18
4 -36 -18 -28 -33 -58 -37 -75 -10 -11 18 -12 18 -29 -3 -14 -17 -21 -19 -36
-10 -28 17 -27 44 3 100 19 35 36 54 51 57 31 6 29 -3 -12 -67 -19 -30 -35
-61 -35 -67 0 -19 49 31 77 79 14 24 36 48 49 53 38 14 29 29 -11 18 -23 -7
-41 -6 -53 0 -14 7 -24 6 -38 -4 -30 -22 -36 -18 -19 15 9 17 21 30 27 30 6 0
9 3 5 6 -3 3 7 19 23 34 23 22 36 28 57 24 46 -9 121 -10 116 -1 -2 4 6 7 17
7 35 0 68 32 59 57 -9 25 -62 54 -80 43 -7 -5 -18 -6 -26 -3 -7 3 -31 -2 -52
-11 -22 -8 -50 -13 -63 -9 -13 3 -55 7 -94 8 -40 2 -90 9 -112 16 -54 16 -101
5 -142 -33 -19 -18 -39 -31 -43 -30 -5 1 -6 -2 -2 -8 3 -5 1 -10 -5 -10 -6 0
-8 -5 -5 -11 5 -7 14 -3 26 10 47 50 86 71 131 71 27 0 50 -6 57 -14 8 -10 24
-12 51 -9 22 3 67 0 99 -6 51 -10 68 -9 111 5 86 28 167 1 117 -40 -19 -15
-35 -18 -109 -14 l-88 4 -34 -35 c-19 -20 -53 -71 -76 -113 -47 -88 -90 -128
-159 -151 -81 -26 -168 9 -154 62 5 21 29 35 44 25 14 -8 10 -34 -6 -40 -30
-12 5 -34 54 -34 67 0 103 27 165 122 56 88 98 137 131 155 29 16 16 23 -56
29 l-65 6 4 -41 c5 -55 -12 -94 -61 -136 -51 -44 -98 -48 -123 -10 -15 24 -15
28 0 70 19 48 81 111 121 121 35 9 21 24 -23 24 -38 0 -68 -16 -110 -57 -27
-27 -28 -36 -3 -28 11 3 22 1 26 -5 3 -5 1 -10 -6 -10 -7 0 -10 -3 -6 -6 3 -4
-1 -13 -9 -22 -11 -10 -15 -29 -12 -59 2 -23 -1 -45 -7 -48 -5 -2 -3 -4 5 -3
8 1 28 -4 44 -11 32 -13 67 -11 78 4 4 5 10 2 13 -7 12 -31 -39 -64 -112 -73
-23 -3 -30 5 -16 19 28 28 -24 78 -56 54 -44 -35 -46 -51 -13 -93 16 -20 32
-29 60 -31 21 -1 42 -4 47 -5 16 -4 68 13 99 32 16 10 32 16 36 14 3 -2 15 10
25 26 20 29 35 37 35 19 0 -5 -3 -10 -7 -10 -5 0 -8 -14 -9 -31 -1 -17 2 -26
6 -19 5 8 11 6 20 -5 7 -8 10 -18 6 -22 -3 -3 -6 -1 -6 6 0 12 -39 9 -61 -5
-6 -3 -16 0 -21 7 -8 11 -9 10 -4 -4 3 -10 -1 -21 -12 -28 -27 -17 -15 -116
17 -148 17 -17 22 -19 18 -7 -4 11 -3 15 4 11 13 -9 40 26 34 43 -3 8 0 12 6
10 6 -2 9 -7 7 -11 -2 -3 6 -13 17 -20 24 -16 65 -28 65 -19 0 13 76 5 108
-12 18 -9 31 -13 30 -9 -2 4 7 18 20 31 12 12 22 18 22 13 0 -18 55 -29 84
-17 15 6 27 14 27 19 -3 24 1 29 15 23 12 -5 14 -1 9 17 -14 48 -41 72 -80 73
-29 0 -42 6 -54 25 l-16 24 27 -17 c23 -15 28 -16 39 -2 7 8 19 12 28 8 30
-12 56 -11 80 4 13 8 21 10 18 5 -8 -13 53 -15 69 -2 16 13 44 -4 44 -27 0
-18 -20 -28 -32 -16 -6 6 -16 9 -22 7 -6 -2 -23 -6 -38 -9 -35 -8 -59 -52 -47
-84 11 -28 34 -52 67 -69 22 -12 23 -11 12 2 -13 16 -3 19 65 16 54 -2 63 11
66 97 1 24 6 37 10 31 4 -7 5 -18 2 -26 -4 -9 0 -11 13 -6 11 4 15 3 10 -5 -3
-6 -2 -14 4 -17 8 -5 7 -11 -1 -21 -10 -12 -10 -15 2 -12 8 2 15 -7 17 -19 4
-25 39 -32 48 -10 7 18 34 17 34 -1 0 -11 9 -13 41 -8 24 4 38 3 35 -3 -3 -5
4 -7 16 -4 19 4 20 3 8 -6 -19 -14 -11 -14 29 0 17 6 31 15 31 21 0 5 5 6 11
2 19 -12 79 -22 73 -13 -7 12 0 11 29 -2 17 -8 30 -8 43 -1 18 10 73 4 119
-13 14 -5 16 -4 6 3 -16 12 44 21 80 12 82 -21 113 57 50 129 -18 21 -24 22
-52 12 -18 -6 -33 -11 -33 -11 -1 0 -2 11 -2 24 0 21 3 23 25 14 14 -5 36 -6
50 -3 15 4 27 1 32 -7 7 -10 9 -10 9 0 0 6 7 12 15 12 8 0 15 -6 15 -12 0 -7
8 0 19 15 l18 28 15 -22 c14 -22 17 -22 62 -9 26 7 50 19 53 26 3 8 10 11 16
7 5 -3 7 -1 4 5 -9 14 3 43 14 36 5 -3 6 -11 3 -17 -5 -8 -4 -9 3 -2 13 13 4
87 -9 79 -5 -3 -18 3 -29 15 -11 12 -16 21 -12 21 4 0 2 4 -6 9 -12 8 -11 17
7 55 28 58 28 70 -2 84 -19 9 -27 8 -36 -4 -19 -22 -49 -18 -43 5 3 11 -1 29
-9 39 -12 18 -23 20 -98 17 -138 -5 -145 -5 -148 5 -2 4 -32 6 -67 4 -57 -4
-64 -2 -70 16 -4 11 -11 18 -16 15 -13 -9 -118 -13 -122 -6 -2 3 -2 0 -1 -6z
m119 -27 c31 -21 188 -32 305 -21 47 5 70 3 82 -7 44 -33 -37 -61 -138 -47
-34 5 -65 4 -76 -2 -27 -14 -99 -109 -92 -121 3 -5 13 0 21 11 15 22 48 28 58
11 8 -14 -13 -40 -32 -40 -8 0 -26 -14 -40 -30 -13 -17 -29 -28 -34 -25 -4 3
1 15 12 26 11 11 18 24 14 27 -4 4 -14 -3 -24 -16 -66 -93 -125 -132 -202
-132 -66 0 -94 18 -94 60 0 29 4 36 23 38 17 3 22 -2 22 -18 0 -11 -7 -23 -15
-26 -30 -12 5 -34 52 -34 58 0 93 19 140 77 21 27 43 51 48 55 6 5 6 8 -2 8
-6 0 -18 -7 -27 -15 -21 -21 -29 -19 -16 5 6 11 18 20 28 20 9 0 37 23 61 51
24 28 57 59 72 68 l29 18 -64 11 c-87 16 -86 16 -80 -17 19 -96 -121 -224
-180 -165 -45 44 16 152 109 195 32 14 36 19 22 25 -36 13 -98 -3 -132 -36
-18 -17 -35 -28 -39 -22 -7 11 27 43 69 65 37 20 94 21 120 3z m-1188 -32 c-3
-3 -12 -4 -19 -1 -8 3 -5 6 6 6 11 1 17 -2 13 -5z m1093 -14 c0 -5 -7 -10 -16
-10 -8 0 -12 5 -9 10 3 6 10 10 16 10 5 0 9 -4 9 -10z m-1137 -22 c-13 -12
-26 -19 -29 -15 -4 4 1 14 12 22 29 22 41 18 17 -7z m206 6 c6 4 11 3 11 -2 0
-9 -38 -52 -46 -52 -4 0 -1 41 5 70 1 3 5 -1 10 -9 5 -7 14 -10 20 -7z m895
-2 c3 -5 -1 -9 -9 -9 -8 0 -12 4 -9 9 3 4 7 8 9 8 2 0 6 -4 9 -8z m219 -24 c3
-11 3 -17 0 -14 -3 3 -14 1 -25 -5 -17 -9 -18 -8 -10 8 5 10 7 24 5 31 -3 7 1
10 10 6 8 -3 17 -15 20 -26z m331 -13 c-3 -8 -12 -11 -20 -8 -15 5 -18 16 -8
26 11 10 33 -4 28 -18z m72 10 c-3 -8 -21 -39 -40 -68 -31 -50 -32 -54 -12
-50 13 3 28 -3 36 -12 13 -15 11 -24 -13 -67 -42 -75 -20 -80 32 -7 16 21 31
36 34 32 8 -8 -50 -80 -75 -94 -14 -7 -23 -7 -34 2 -21 17 -17 45 12 89 15 22
25 43 22 45 -14 14 -42 -14 -79 -76 -29 -49 -47 -69 -61 -69 -17 0 -18 3 -8
15 16 19 1 19 -24 0 -25 -19 -51 -19 -70 0 -14 14 -18 14 -39 0 -26 -17 -52
-12 -61 12 -3 8 8 42 25 74 25 46 37 59 55 59 22 0 22 -2 -17 -67 -25 -44 -35
-69 -27 -72 6 -2 22 9 35 25 12 16 29 36 38 44 56 54 75 76 75 86 0 17 27 37
40 29 8 -5 4 -15 -10 -30 -19 -20 -21 -30 -15 -62 5 -21 8 -41 7 -45 -1 -5 3
-8 8 -8 6 0 10 5 10 11 0 6 27 57 61 115 45 77 66 104 81 104 14 0 18 -5 14
-15z m-272 -18 c-5 -8 -3 -8 7 1 7 6 22 12 34 12 16 0 17 -2 5 -10 -12 -7 -10
-9 7 -7 12 0 19 5 17 9 -3 4 7 8 23 7 25 0 26 -1 8 -9 -16 -7 -17 -9 -3 -9 9
-1 20 4 23 9 8 14 26 12 48 -4 17 -13 17 -15 -4 -50 -11 -20 -25 -36 -31 -36
-5 0 -6 -5 -2 -12 5 -7 3 -8 -6 -3 -10 6 -9 11 5 22 11 7 15 13 11 13 -5 0 -2
8 5 17 8 10 9 14 2 10 -6 -4 -14 -3 -17 2 -7 10 -25 9 -43 -2 -7 -5 -17 -6
-22 -3 -5 4 -7 -4 -4 -15 4 -16 2 -20 -8 -17 -8 2 -15 14 -17 26 -3 16 -44 42
-67 42 -2 0 -5 -9 -8 -20 -4 -15 -10 -18 -24 -13 -16 6 -16 8 -2 11 11 2 15
10 12 23 -4 14 -1 18 10 13 8 -3 18 0 22 5 9 15 27 3 19 -12z m14 -54 c-4 -22
-48 -31 -48 -10 0 19 10 27 32 27 13 0 18 -6 16 -17z m32 -45 c0 -6 -7 -7 -16
-4 -9 3 -18 6 -20 6 -3 0 -3 4 1 10 7 11 35 2 35 -12z m-1390 -26 c0 -13 -12
-22 -22 -16 -10 6 -1 24 13 24 5 0 9 -4 9 -8z m1217 -69 c-3 -15 1 -39 8 -54
13 -24 12 -28 -14 -53 -24 -23 -30 -25 -40 -12 -17 21 -48 26 -68 11 -22 -16
-45 -1 -36 22 5 12 3 14 -7 8 -9 -5 -11 -4 -6 4 6 9 11 9 22 0 12 -9 13 -9 9
3 -6 14 25 32 48 29 4 -1 7 6 7 14 0 8 7 15 15 15 8 0 15 7 15 16 0 8 4 13 8
10 4 -2 14 -1 22 5 22 13 23 12 17 -18z m-382 -13 c4 -6 10 -8 15 -5 18 11 17
-24 -1 -41 -15 -13 -19 -14 -19 -3 0 12 -2 12 -9 0 -5 -8 -16 -11 -24 -8 -9 3
-18 1 -21 -6 -3 -9 -5 -9 -5 1 -1 6 8 21 19 32 11 11 20 25 20 30 0 13 17 13
25 0z m-527 -43 c3 -13 -3 -16 -20 -15 -18 2 -22 -1 -20 -16 2 -10 -1 -15 -7
-12 -5 4 -12 2 -16 -4 -11 -17 -24 -11 -20 10 4 20 35 59 35 44 0 -5 5 -3 12
4 15 15 32 10 36 -11z m388 -22 c1 -8 -4 -11 -12 -8 -10 3 -14 -2 -14 -19 0
-13 -6 -30 -12 -37 -10 -11 -10 -13 0 -7 8 5 12 -1 12 -18 0 -14 -5 -26 -11
-26 -6 0 -9 -7 -5 -15 4 -10 -1 -15 -14 -15 -17 0 -20 7 -20 52 0 46 4 56 33
83 34 32 40 33 43 10z m216 6 c21 -10 34 -21 31 -25 -3 -3 -12 -1 -20 5 -10 9
-13 7 -13 -7 -1 -15 -4 -13 -16 9 -8 15 -19 25 -24 22 -6 -4 -10 -1 -10 4 0
15 10 14 52 -8z m-742 0 c0 -5 9 -11 21 -14 12 -3 18 -10 14 -16 -11 -18 -32
-12 -40 12 -6 19 -8 19 -12 5 -3 -11 -14 -18 -30 -18 -15 0 -23 5 -20 13 2 6
9 12 15 12 5 0 14 3 18 8 10 10 34 9 34 -2z m-82 -62 c3 -14 -3 -28 -14 -36
-28 -21 -37 -15 -30 19 5 24 3 29 -5 21 -6 -6 -10 -30 -7 -52 3 -37 1 -41 -19
-41 -21 0 -23 5 -23 48 0 49 13 76 40 85 22 7 54 -17 58 -44z m790 33 c2 -7
-6 -12 -17 -12 -21 0 -27 11 -14 24 9 9 26 2 31 -12z m112 8 c0 -5 -4 -10 -9
-10 -6 0 -13 5 -16 10 -3 6 1 10 9 10 9 0 16 -4 16 -10z m300 -5 c0 -8 -7 -15
-15 -15 -8 0 -15 7 -15 15 0 8 7 15 15 15 8 0 15 -7 15 -15z m-970 -48 c0 -59
-12 -77 -50 -77 -48 0 -67 45 -33 82 21 24 43 23 43 -2 0 -11 -4 -20 -10 -20
-5 0 -10 -7 -10 -16 0 -9 6 -14 13 -11 7 3 11 21 10 51 -1 39 2 46 18 46 16 0
19 -7 19 -53z m450 36 c1 -17 1 -17 14 0 12 15 46 25 46 12 0 -2 -8 -26 -18
-52 -11 -26 -22 -57 -26 -68 -7 -17 -10 -13 -26 25 -9 25 -22 57 -28 73 -11
25 -10 27 13 27 17 0 25 -6 25 -17z m276 2 c-3 -8 -1 -15 4 -15 15 0 12 -37
-2 -44 -10 -5 -10 -7 0 -12 16 -8 16 -44 -1 -44 -25 0 -37 25 -37 77 0 47 2
53 21 53 15 0 19 -5 15 -15z m-886 -35 c0 -11 -4 -20 -10 -20 -5 0 -10 -13
-10 -30 0 -23 -4 -30 -20 -30 -16 0 -18 5 -14 37 2 20 9 42 15 50 17 20 39 16
39 -7z m44 -33 c1 -39 -1 -47 -16 -47 -15 0 -18 9 -18 49 0 40 3 49 16 47 12
-2 17 -15 18 -49z m218 36 c26 -23 23 -43 -8 -43 -20 0 -25 4 -20 16 4 10 1
14 -6 12 -23 -8 -19 -28 6 -38 14 -5 26 -14 26 -20 0 -14 -53 -13 -68 2 -27
27 -3 88 35 88 9 0 25 -7 35 -17z m162 1 c19 -18 21 -55 4 -72 -15 -15 -61
-15 -76 0 -17 17 -15 48 5 70 20 22 46 23 67 2z m296 -36 c0 -41 -3 -48 -20
-48 -17 0 -20 7 -20 48 0 41 3 48 20 48 17 0 20 -7 20 -48z m98 40 c20 -20 14
-28 -19 -28 -20 0 -29 -4 -26 -12 2 -8 15 -12 30 -10 29 4 30 2 21 -22 -7 -19
-55 -21 -72 -4 -7 7 -12 24 -12 38 0 31 17 50 45 50 12 0 26 -5 33 -12z m187
-12 c24 -37 3 -76 -42 -76 -26 0 -54 35 -46 59 15 44 64 54 88 17z m85 4 c0
-11 -4 -20 -10 -20 -5 0 -10 -13 -10 -30 0 -23 -4 -30 -20 -30 -16 0 -20 7
-20 34 0 36 21 66 46 66 8 0 14 -9 14 -20z m40 -32 c0 -39 -3 -48 -17 -48 -15
0 -17 8 -15 48 3 34 8 49 18 49 10 0 14 -14 14 -49z m102 35 c10 -9 18 -30 18
-50 0 -26 -4 -33 -20 -33 -16 0 -20 7 -20 30 0 17 -4 30 -8 30 -17 0 -21 -13
-9 -31 14 -23 2 -37 -21 -23 -23 15 -27 58 -7 78 21 20 44 20 67 -1z"/>
<path d="M2360 778 c-68 -25 -124 -95 -118 -146 7 -64 101 -21 139 63 19 42
24 81 12 88 -5 3 -19 0 -33 -5z m12 -48 c-3 -21 -9 -30 -21 -28 -10 2 -17 -5
-19 -19 -2 -13 -9 -23 -15 -23 -7 0 -6 -4 3 -10 11 -7 9 -11 -14 -20 -33 -12
-39 -9 -43 24 -2 14 2 23 11 23 8 0 12 -6 9 -13 -2 -6 -1 -14 4 -17 4 -3 9 6
9 19 1 13 -2 24 -7 24 -15 0 8 37 27 44 9 3 23 1 32 -6 13 -11 14 -10 8 10 -5
15 -3 22 7 22 9 0 12 -9 9 -30z"/>
<path d="M2300 710 c0 -5 5 -10 10 -10 6 0 10 5 10 10 0 6 -4 10 -10 10 -5 0
-10 -4 -10 -10z"/>
<path d="M2640 780 c36 -12 118 -12 125 0 4 6 -22 10 -72 9 -54 -1 -70 -3 -53
-9z"/>
<path d="M2500 630 c0 -5 4 -10 9 -10 6 0 13 5 16 10 3 6 -1 10 -9 10 -9 0
-16 -4 -16 -10z"/>
<path d="M2655 566 c-8 -19 -24 -37 -35 -41 -26 -8 -27 -45 0 -45 25 0 48 35
54 83 6 46 -1 47 -19 3z"/>
<path d="M2450 490 c0 -5 5 -10 11 -10 5 0 7 5 4 10 -3 6 -8 10 -11 10 -2 0
-4 -4 -4 -10z"/>
<path d="M1800 345 c0 -9 5 -15 11 -13 6 2 11 8 11 13 0 5 -5 11 -11 13 -6 2
-11 -4 -11 -13z"/>
<path d="M2372 349 c2 -6 8 -10 13 -10 5 0 11 4 13 10 2 6 -4 11 -13 11 -9 0
-15 -5 -13 -11z"/>
<path d="M656 851 c-3 -5 -16 -9 -28 -9 -29 0 -205 -49 -232 -65 -12 -6 -32
-12 -46 -13 -38 -2 -70 -12 -86 -25 -8 -6 -14 -9 -14 -6 0 6 -62 -32 -87 -53
-7 -5 -17 -10 -23 -10 -5 0 -10 -7 -10 -15 0 -8 -7 -15 -15 -15 -8 0 -15 -3
-15 -7 0 -5 -12 -21 -26 -38 -18 -22 -23 -36 -19 -55 7 -28 64 -92 76 -84 4 2
11 -2 16 -10 4 -8 11 -15 15 -16 33 -7 48 -13 48 -20 0 -4 18 -10 39 -14 25
-4 46 -15 55 -28 9 -12 16 -19 16 -16 0 4 16 -4 36 -17 43 -29 50 -30 58 -9 3
8 10 12 16 9 5 -3 7 0 4 8 -8 23 9 28 40 11 16 -7 41 -14 57 -14 15 0 30 -4
33 -8 5 -8 34 -13 91 -15 29 -1 97 10 119 19 15 6 17 4 11 -6 -5 -9 -4 -11 4
-6 6 4 9 11 7 15 -7 11 52 53 64 46 6 -4 8 -10 5 -14 -2 -5 9 -7 26 -5 16 2
28 0 25 -4 -3 -5 8 -6 24 -4 19 3 27 8 23 16 -4 7 -2 7 8 -1 13 -11 15 -1 17
80 3 150 2 161 -15 179 -15 17 -63 21 -63 6 0 -4 -4 -8 -9 -8 -5 0 -8 17 -6
37 1 21 -4 53 -12 72 -17 41 -70 91 -96 91 -10 0 -16 4 -13 8 2 4 -11 6 -31 4
-25 -3 -34 -1 -29 7 5 8 0 8 -19 1 -17 -7 -24 -7 -20 0 3 6 2 10 -4 10 -5 0
-12 -4 -15 -9z m105 -36 c62 -9 109 -75 109 -150 0 -40 -5 -52 -34 -81 -19
-19 -42 -34 -51 -34 -10 0 -41 24 -69 54 -48 51 -151 124 -162 114 -2 -3 18
-17 44 -31 26 -14 73 -53 103 -87 39 -41 63 -60 80 -60 13 0 54 21 91 46 93
64 100 58 92 -85 -4 -58 -10 -110 -14 -114 -12 -13 -42 -1 -100 43 -37 28 -48
40 -34 40 15 0 16 2 5 9 -11 7 -9 10 10 13 22 4 22 5 5 13 -14 6 -23 3 -32
-10 -10 -13 -21 -16 -43 -12 -16 3 -42 2 -58 -2 l-29 -8 -2 55 c-1 30 -7 62
-12 71 -7 11 -8 -7 -4 -56 l7 -73 -74 -35 c-96 -45 -74 -45 30 0 86 38 136 43
181 20 72 -37 8 -100 -113 -112 -59 -5 -185 17 -212 37 -5 4 -32 10 -60 13
-27 2 -59 8 -70 11 -13 5 -12 2 5 -8 14 -8 39 -16 55 -16 29 -1 29 -2 7 -11
-13 -5 -29 -6 -34 -2 -7 4 -8 1 -4 -6 5 -7 14 -10 20 -8 7 3 13 -1 13 -9 0
-21 -10 -17 -63 24 -27 21 -83 51 -124 67 -71 28 -150 87 -150 113 0 6 22 35
49 65 54 58 143 111 206 122 22 4 78 20 125 37 89 30 221 58 255 52 11 -1 36
-5 56 -9z"/>
<path d="M468 743 c7 -3 16 -2 19 1 4 3 -2 6 -13 5 -11 0 -14 -3 -6 -6z"/>
<path d="M517 729 c7 -7 15 -10 18 -7 3 3 -2 9 -12 12 -14 6 -15 5 -6 -5z"/>
<path d="M479 663 c8 -17 12 -57 15 -150 0 -24 5 -43 10 -43 8 0 -1 187 -11
203 -10 16 -23 7 -14 -10z"/>
<path d="M211 633 c7 -12 15 -20 18 -17 3 2 -3 12 -13 22 -17 16 -18 16 -5 -5z"/>
<path d="M333 603 c-24 -25 -43 -53 -43 -63 0 -37 97 -89 141 -75 19 6 20 12
14 51 -3 25 -13 61 -21 80 -8 19 -13 38 -10 42 3 4 -5 9 -17 9 -14 2 -36 -14
-64 -44z m75 -5 c10 -24 21 -60 25 -80 6 -37 5 -38 -26 -38 -34 0 -94 31 -103
54 -4 11 70 106 82 106 2 0 12 -19 22 -42z"/>
<path d="M401 534 c0 -11 3 -14 6 -6 3 7 2 16 -1 19 -3 4 -6 -2 -5 -13z"/>
<path d="M580 571 c0 -38 -3 -78 -6 -88 -5 -17 -5 -17 10 1 17 20 21 142 5
151 -5 4 -9 -23 -9 -64z"/>
<path d="M164 619 c-7 -12 15 -31 30 -26 6 2 12 9 14 17 3 9 -1 11 -12 7 -10
-4 -15 -3 -11 3 3 6 2 10 -4 10 -5 0 -13 -5 -17 -11z"/>
<path d="M900 555 c-25 -13 -41 -24 -37 -25 11 0 87 39 87 45 0 7 0 7 -50 -20z"/>
<path d="M243 524 c-6 -13 -7 -24 -3 -24 9 0 25 39 18 45 -2 2 -8 -7 -15 -21z"/>
<path d="M631 524 c0 -11 3 -14 6 -6 3 7 2 16 -1 19 -3 4 -6 -2 -5 -13z"/>
<path d="M905 530 c-3 -5 -2 -10 4 -10 5 0 13 5 16 10 3 6 2 10 -4 10 -5 0
-13 -4 -16 -10z"/>
<path d="M471 514 c0 -11 3 -14 6 -6 3 7 2 16 -1 19 -3 4 -6 -2 -5 -13z"/>
<path d="M800 520 c0 -5 7 -7 15 -4 8 4 15 8 15 10 0 2 -7 4 -15 4 -8 0 -15
-4 -15 -10z"/>
<path d="M270 502 c0 -6 -12 -18 -27 -26 -16 -8 -23 -15 -17 -16 18 0 60 37
52 46 -5 4 -8 2 -8 -4z"/>
<path d="M918 503 c7 -3 16 -2 19 1 4 3 -2 6 -13 5 -11 0 -14 -3 -6 -6z"/>
<path d="M188 483 c7 -3 16 -2 19 1 4 3 -2 6 -13 5 -11 0 -14 -3 -6 -6z"/>
<path d="M287 483 c-4 -3 -7 -11 -7 -17 0 -6 5 -5 12 2 6 6 9 14 7 17 -3 3 -9
2 -12 -2z"/>
<path d="M890 450 c8 -5 22 -9 30 -9 10 0 8 3 -5 9 -27 12 -43 12 -25 0z"/>
<path d="M1535 801 c-27 -6 -23 -8 27 -15 58 -7 83 -2 73 15 -7 10 -55 10
-100 0z"/>
<path d="M1230 773 c-78 -51 -126 -127 -100 -158 22 -26 56 -17 94 26 41 45
56 77 56 120 0 33 -13 36 -50 12z m20 -41 c0 -10 -6 -24 -12 -31 -10 -11 -10
-13 0 -7 21 12 13 -1 -23 -39 -20 -20 -43 -35 -53 -33 -22 4 -28 39 -8 50 9 5
16 14 16 19 0 15 26 39 34 32 3 -4 6 1 6 10 0 10 8 17 20 17 13 0 20 -7 20
-18z"/>
<path d="M1682 594 c-26 -18 -77 -102 -68 -111 3 -4 21 8 39 25 62 60 84 125
29 86z"/>
<path d="M1953 582 c-38 -35 -67 -89 -52 -97 11 -7 48 30 80 80 33 53 19 62
-28 17z"/>
<path d="M2244 522 c3 -5 0 -13 -6 -15 -9 -4 -10 -6 -1 -6 17 -1 25 16 12 25
-7 4 -9 3 -5 -4z"/>
</g>
</svg>
