<?xml version="1.0" standalone="no"?>
<!DOCTYPE svg PUBLIC "-//W3C//DTD SVG 20010904//EN"
 "http://www.w3.org/TR/2001/REC-SVG-20010904/DTD/svg10.dtd">
<svg version="1.0" xmlns="http://www.w3.org/2000/svg"
 width="308.000000pt" height="180.000000pt" viewBox="0 0 308.000000 180.000000"
 preserveAspectRatio="xMidYMid meet">

<g transform="translate(0.000000,180.000000) scale(0.100000,-0.100000)"
fill="#000000" stroke="none">
<path d="M911 1273 c-65 -13 -297 -111 -263 -113 7 0 30 9 52 20 47 24 151 50
200 50 74 0 106 -65 60 -123 -35 -44 -22 -43 26 3 69 68 93 127 62 158 -12 12
-87 14 -137 5z"/>
<path d="M490 1074 c-141 -97 -250 -211 -250 -262 0 -43 92 -55 191 -26 75 22
199 75 199 85 0 4 -15 2 -32 -5 -46 -19 -127 -28 -163 -18 -39 11 -56 45 -43
83 14 41 87 119 153 164 30 21 55 40 55 42 0 10 -24 -4 -110 -63z"/>
<path d="M1244 1119 c-38 -13 -44 -35 -50 -153 l-5 -116 36 0 35 0 0 70 c0 63
2 70 20 70 15 0 20 7 20 26 0 21 -4 25 -20 21 -15 -4 -20 0 -20 14 0 14 7 19
25 19 20 0 25 5 25 24 0 26 -32 38 -66 25z"/>
<path d="M1740 1100 c0 -28 3 -30 35 -30 32 0 35 2 35 30 0 28 -3 30 -35 30
-32 0 -35 -2 -35 -30z"/>
<path d="M750 1109 c-41 -16 -60 -40 -60 -74 0 -40 22 -61 90 -83 62 -20 73
-37 35 -54 -22 -10 -35 -9 -70 3 -40 15 -43 14 -54 -3 -16 -26 -8 -35 47 -47
55 -11 114 -1 143 25 29 26 25 78 -7 103 -15 12 -32 21 -38 21 -30 0 -86 22
-86 34 0 30 29 40 77 27 37 -9 48 -9 55 1 15 24 8 35 -31 46 -45 14 -67 14
-101 1z"/>
<path d="M965 1015 c-20 -19 -25 -34 -25 -72 1 -54 14 -77 54 -93 22 -8 35 -7
57 4 16 8 29 10 29 5 0 -5 14 -9 30 -9 l30 0 0 94 0 94 -27 -1 c-16 -1 -31 -6
-35 -12 -5 -6 -12 -5 -20 3 -20 20 -67 14 -93 -13z m111 -49 c13 -52 -18 -92
-53 -70 -21 13 -27 36 -19 70 5 19 13 24 36 24 23 0 31 -5 36 -24z"/>
<path d="M1357 1020 c-32 -25 -42 -78 -23 -123 8 -19 19 -38 26 -42 19 -12 82
-8 92 7 7 10 11 10 15 1 2 -7 18 -13 34 -13 l29 0 0 93 0 92 -30 1 c-21 1 -30
-3 -30 -14 0 -13 -2 -13 -18 1 -25 23 -64 21 -95 -3z m107 -46 c19 -50 -6 -91
-49 -80 -21 5 -25 12 -25 45 0 21 3 41 7 44 13 13 61 7 67 -9z"/>
<path d="M1580 943 l0 -93 30 0 c30 0 30 1 30 53 0 65 10 80 49 80 27 0 31 4
31 29 0 23 -4 28 -24 28 -13 0 -29 -7 -37 -16 -11 -14 -13 -14 -21 0 -5 9 -20
15 -33 14 -25 -2 -25 -4 -25 -95z"/>
<path d="M1745 1031 c-3 -2 -5 -44 -5 -93 l0 -88 35 0 35 0 0 95 0 95 -30 -2
c-17 -1 -33 -4 -35 -7z"/>
<path d="M1880 1012 c-54 -54 -36 -141 33 -160 36 -10 94 -5 103 9 3 5 2 18
-1 30 -5 15 -10 18 -20 9 -25 -21 -69 -8 -79 23 -15 42 2 62 53 61 32 -1 42 3
47 18 8 26 2 30 -55 36 -46 4 -53 2 -81 -26z"/>
<path d="M2077 1020 c-48 -38 -44 -122 8 -156 29 -19 94 -21 123 -3 50 31 56
107 13 150 -37 36 -104 41 -144 9z m111 -59 c3 -43 -16 -71 -48 -71 -25 0 -38
27 -31 65 5 25 12 31 41 36 19 4 35 7 35 8 0 0 1 -17 3 -38z m32 -65 c0 -2 -8
-10 -17 -17 -16 -13 -17 -12 -4 4 13 16 21 21 21 13z"/>
<path d="M2290 946 l0 -96 30 0 c30 0 30 0 30 59 0 41 5 64 16 76 28 27 44 1
44 -71 l0 -64 33 0 32 0 -1 53 c-2 61 9 87 36 87 18 0 20 -7 20 -70 l0 -70 36
0 37 0 -5 81 c-4 65 -9 85 -23 95 -25 19 -65 18 -86 -2 -17 -15 -19 -15 -34 0
-21 21 -69 21 -86 0 -11 -13 -15 -13 -23 -2 -6 7 -21 14 -33 16 -22 3 -23 1
-23 -92z"/>
<path d="M1800 690 c0 -48 3 -60 16 -60 13 0 15 7 9 41 -8 47 5 47 25 -1 16
-38 25 -38 47 3 l18 32 3 -37 c5 -61 22 -44 22 22 0 71 -20 82 -47 25 -9 -19
-19 -35 -23 -35 -3 0 -12 16 -19 35 -8 24 -19 35 -32 35 -17 0 -19 -7 -19 -60z"/>
<path d="M2110 690 c0 -47 3 -60 15 -60 8 0 15 6 15 13 0 7 15 17 33 22 25 8
33 16 35 39 4 35 -10 46 -60 46 l-38 0 0 -60z m75 30 c8 -13 -13 -40 -31 -40
-8 0 -14 10 -14 25 0 18 5 25 19 25 11 0 23 -5 26 -10z"/>
<path d="M2230 690 l0 -60 50 0 c28 0 50 5 50 10 0 6 -16 10 -35 10 -24 0 -35
5 -35 15 0 10 10 15 30 15 17 0 30 5 30 10 0 6 -13 10 -30 10 -20 0 -30 5 -30
15 0 10 11 15 35 15 19 0 35 5 35 10 0 6 -22 10 -50 10 l-50 0 0 -60z"/>
<path d="M2361 736 c-16 -20 -4 -43 30 -55 42 -15 38 -35 -7 -28 -25 4 -34 2
-31 -6 2 -7 22 -12 48 -12 40 0 44 2 44 25 0 19 -8 29 -32 39 -42 19 -42 33
-1 29 19 -2 33 2 35 10 6 17 -71 16 -86 -2z"/>
<path d="M2487 690 c-19 -45 -22 -60 -12 -60 8 0 17 5 20 10 3 6 19 10 36 10
16 0 29 -4 29 -10 0 -5 9 -10 19 -10 19 0 18 3 -6 60 -17 39 -32 60 -43 60
-11 0 -26 -21 -43 -60z m53 21 c0 -5 3 -16 6 -25 4 -12 0 -16 -16 -16 -16 0
-20 4 -16 16 3 9 6 20 6 25 0 5 5 9 10 9 6 0 10 -4 10 -9z"/>
<path d="M2034 709 c-10 -11 -23 -18 -30 -15 -7 3 -18 -2 -24 -10 -19 -22 71
-19 100 4 l22 18 -25 11 c-21 10 -28 9 -43 -8z"/>
</g>
</svg>
